# xmcd
#
# Track frame offsets: 
#        150
#        23218
#        44977
#        59712
#        74891
#        91068
#        104267
#        117196
#        136913
#        154326
#        171852
#        187382
#        205548
#        231166
#        245448
#        262584
#        280856
#        297612
#        321505
#        339539
#
# Disc length: 4781 seconds
#
# Revision: 0
# Processed by: cddbd v1.5.2PL0 Copyright (c) Steve Scherf et al.
# Submitted via: ExactAudioCopyFreeDBPlugin 1.0
#
DISCID=3f12ab14
DTITLE=Сурганова и Оркестр - Star Hit. Звездная коллекция. Лучшее
DYEAR=2010
DGENRE=Rock
TTITLE0=Белая
TTITLE1=Корабли
TTITLE2=Мураками
TTITLE3=Не тобой болеет сердце
TTITLE4=Энергетический вампир
TTITLE5=Ты
TTITLE6=Февральский ветер
TTITLE7=Ангел седой
TTITLE8=Мой взгляд
TTITLE9=Горе по небу
TTITLE10=Я теряю тебя
TTITLE11=Больно
TTITLE12=Так начинался день
TTITLE13=Абсолютный сталевар
TTITLE14=Апрельская
TTITLE15=Не бойся, милая
TTITLE16=Далеко
TTITLE17=Ворон
TTITLE18=Ты мое дыхание
TTITLE19=Весна
EXTD=
EXTT0=
EXTT1=
EXTT2=
EXTT3=
EXTT4=
EXTT5=
EXTT6=
EXTT7=
EXTT8=
EXTT9=
EXTT10=
EXTT11=
EXTT12=
EXTT13=
EXTT14=
EXTT15=
EXTT16=
EXTT17=
EXTT18=
EXTT19=
PLAYORDER=
